#!OML:ASF F:\VICON\USERDATA\INSTALL\rory3\rory3.ASF
:FULLY-SPECIFIED
:DEGREES
735
root 12.4944 17.958 -8.34123 -2.59685 194.723 0.555451
lowerback 13.6153 1.43643 -1.06626
upperback 2.89575 1.51235 0.871662
thorax -4.63096 0.639581 1.2637
lowerneck -14.2082 5.85931 -10.1022
upperneck 43.5169 6.0575 3.17902
head 18.2173 -0.463715 3.88532
rclavicle 4.60187e-014 -5.06901e-015
rhumerus -41.9541 -11.364 -80.6613
rradius 31.9274
rwrist 3.33279
rhand -16.7956 6.9336
rfingers 7.12502
rthumb 9.43253 -22.8353
lclavicle 4.60187e-014 -5.06901e-015
lhumerus -31.9195 5.94092 83.0227
lradius 41.4779
lwrist -0.918031
lhand -17.5613 27.4945
lfingers 7.12502
lthumb 8.69373 57.2955
rfemur -14.5675 -0.95321 22.0509
rtibia 30.9254
rfoot -8.5049 -7.473
rtoes 13.9395
lfemur -19.689 -4.01132 -19.9067
ltibia 48.1076
lfoot -12.9099 -8.20159
ltoes -18.2951
736
root 12.4921 17.969 -8.29111 -2.67993 194.8 0.396887
lowerback 13.5949 1.34332 -1.20143
upperback 2.86431 1.37233 0.838145
thorax -4.65094 0.574104 1.32932
lowerneck -14.0868 6.13898 -9.96418
upperneck 43.7856 6.31471 3.25427
head 18.3168 -0.373483 3.93651
rclavicle 7.70291e-016 -1.14301e-014
rhumerus -42.3803 -11.7823 -80.366
rradius 31.8054
rwrist 3.91145
rhand -16.7025 7.1135
rfingers 7.12502
rthumb 9.52235 -22.6513
lclavicle 7.70291e-016 -1.14301e-014
lhumerus -32.2637 6.14301 82.8974
lradius 41.2962
lwrist -0.809451
lhand -17.9336 27.6979
lfingers 7.12502
lthumb 8.33437 57.5135
rfemur -14.3966 -0.96811 21.8049
rtibia 30.62
rfoot -8.17994 -7.40467
rtoes 13.8483
lfemur -19.178 -4.25712 -19.9452
ltibia 49.3172
lfoot -11.7641 -8.36452
ltoes -19.8487
737
root 12.4918 17.9797 -8.2393 -2.74752 194.875 0.458083
lowerback 13.5433 1.27645 -1.07512
upperback 2.78874 1.3087 0.802055
thorax -4.69623 0.54534 1.23111
lowerneck -13.8587 6.37087 -9.75522
upperneck 44.0069 6.46462 3.31179
head 18.3756 -0.310602 3.94352
rclavicle 6.21699e-014 1.68967e-015
rhumerus -42.9542 -12.289 -80.1508
rradius 31.855
rwrist 4.11998
rhand -16.7986 7.24128
rfingers 7.12502
rthumb 9.42968 -22.5278
lclavicle 6.21699e-014 1.68967e-015
lhumerus -32.6679 6.21854 82.7409
lradius 41.1488
lwrist -0.677741
lhand -18.1074 27.6867
lfingers 7.12502
lthumb 8.16672 57.5089
rfemur -14.3531 -0.866871 21.811
rtibia 30.3214
rfoot -7.89249 -7.49681
rtoes 14.0357
lfemur -18.7107 -4.4653 -19.7167
ltibia 50.4173
lfoot -11.6497 -8.56996
ltoes -23.7275
738
root 12.4905 17.9902 -8.18216 -2.70961 194.904 0.451835
lowerback 13.5354 1.21484 -1.01893
upperback 2.62067 1.25027 0.781975
thorax -4.86517 0.524292 1.187
lowerneck -13.7333 6.58475 -9.73012
upperneck 44.2608 6.65495 3.39736
head 18.4692 -0.264075 4.00721
rclavicle -3.48867e-014 -4.17448e-015
rhumerus -43.5385 -12.566 -79.9479
rradius 31.8743
rwrist 3.94116
rhand -16.9396 7.04562
rfingers 7.12502
rthumb 9.29358 -22.7295
lclavicle -3.48867e-014 -4.17448e-015
lhumerus -33.1932 6.51179 82.529
lradius 40.9225
lwrist -0.965752
lhand -18.0783 26.9429
lfingers 7.12502
lthumb 8.19474 56.764
rfemur -14.414 -0.722623 21.747
rtibia 29.948
rfoot -7.33734 -7.55752
rtoes 13.2855
lfemur -18.2761 -4.7006 -19.5378
ltibia 51.3662
lfoot -11.3251 -9.06087
ltoes -23.3354
739
root 12.4831 17.9999 -8.12583 -2.67337 194.964 0.316592
lowerback 13.5083 1.11855 -1.08033
upperback 2.48837 1.12667 0.772966
thorax -4.987 0.471145 1.23314
lowerneck -13.6529 6.82204 -9.70796
upperneck 44.4725 6.9753 3.31655
head 18.5514 -0.184895 4.01425
rclavicle 8.62228e-015 9.93923e-016
rhumerus -44.0057 -12.7304 -79.7213
rradius 31.7878
rwrist 3.74305
rhand -16.9939 6.47182
rfingers 7.12502
rthumb 9.24125 -23.3057
lclavicle 8.62228e-015 9.93923e-016
lhumerus -33.6215 6.86039 82.3622
lradius 40.4856
lwrist -1.33438
lhand -18.2396 26.2219
lfingers 7.12502
lthumb 8.03905 56.049
rfemur -14.3871 -0.758142 21.5148
rtibia 29.551
rfoot -6.84841 -7.49175
rtoes 12.6538
lfemur -17.6986 -5.02879 -19.5294
ltibia 52.1589
lfoot -10.5363 -9.54826
ltoes -21.5349
